<svg width="19" height="18" viewBox="0 0 19 18" fill="none" xmlns="http://www.w3.org/2000/svg">
<path fill-rule="evenodd" clip-rule="evenodd" d="M18.535 15.4322L14.4074 11.5219C14.3854 11.5011 14.3597 11.4866 14.3368 11.4672C15.1489 10.3001 15.623 8.90292 15.623 7.40043C15.623 3.31326 12.1256 0 7.81149 0C3.49734 0 0 3.31327 0 7.40036C0 11.4874 3.49726 14.8007 7.81141 14.8007C9.39745 14.8007 10.8721 14.3516 12.1042 13.5822C12.1246 13.6038 12.1398 13.6282 12.1618 13.649L16.2895 17.5595C16.9096 18.1468 17.9149 18.1468 18.535 17.5595C19.155 16.972 19.155 16.0197 18.535 15.4322ZM7.81149 12.2352C4.99282 12.2352 2.70792 10.0706 2.70792 7.40036C2.70792 4.73004 4.9929 2.5654 7.81149 2.5654C10.63 2.5654 12.915 4.73011 12.915 7.40036C12.915 10.0706 10.63 12.2352 7.81149 12.2352Z" fill="white"/>
</svg>
